# xmcd
#
# Track frame offsets:
# 150
# 12268
# 27371
# 42174
# 56524
# 66544
# 78959
# 92234
# 104244
# 112609
# 120712
# 128040
# 142088
# 152426
#
# Disc length: 2155 seconds
#
#
# Revision: 0
# Processed by: cddbd v1.5.2PL0 Copyright (c) Steve Scherf et al.
# Submitted via: FreeRIP 2.945 
#
DISCID=ba08690e
DTITLE=Ken FLY - Diggin' in the dumpster
DYEAR=2005
DGENRE=Bluegrass
TTITLE0=01 - Diggin' in the dumpster
TTITLE1=02 - Old western cowboy
TTITLE2=03 - Girl with gold in her hair
TTITLE3=04 - Our turn on the dance floor
TTITLE4=05 - Don't get near my fire
TTITLE5=06 - Color of the wine
TTITLE6=07 - Only two fingers
TTITLE7=08 - Legend of a little man
TTITLE8=09 - Route 55 blues
TTITLE9=10 - Sunshine
TTITLE10=11 - Bbq song
TTITLE11=12 - Dad was the head of our home
TTITLE12=13 - Rose wood casket
TTITLE13=14 - Bill Cheatham
EXTD=Live at the BBQ Caboose, Lynchburg Tennessee
EXTT0=
EXTT1=
EXTT2=
EXTT3=
EXTT4=
EXTT5=
EXTT6=
EXTT7=
EXTT8=
EXTT9=
EXTT10=
EXTT11=
EXTT12=
EXTT13=
PLAYORDER=
